#!OML:ASF I:\golf\golf\golf 2\Subject 1\2002-09-07\Subject1.ASF
:FULLY-SPECIFIED
:DEGREES
245
root -8.67408 17.7592 5.34571 -24.8014 83.9584 -42.4448
lowerback 7.96159 1.39981 -1.20228
upperback 8.80833 2.10097 4.47959
thorax 4.526 1.00713 5.29246
lowerneck -12.0594 0.148388 3.1605
upperneck 41.2627 4.89379 -7.59505
head 17.5002 2.10317 -3.00725
rclavicle -2.10712e-014 6.36111e-015
rhumerus -16.927 44.6572 -94.1035
rradius 63.7316
rwrist -58.3165
rhand -35.9379 -20.6573
rfingers 7.12502
rthumb -9.04993 -50.4432
lclavicle -2.10712e-014 6.36111e-015
lhumerus -19.0476 -48.7422 104.841
lradius 67.2837
lwrist 65.9814
lhand -13.4032 66.211
lfingers 7.12502
lthumb -167.295 84.1954
rfemur -39.6718 -3.23728 20.789
rtibia 35.5994
rfoot -9.03413 -0.865173
rtoes 3.9694
lfemur -37.9312 7.74278 -13.8225
ltibia 34.2448
lfoot -11.7511 -7.61547
ltoes -8.29403
246
root -8.6746 17.7658 5.34721 -24.8441 83.8156 -42.4552
lowerback 7.94737 1.42298 -1.2461
upperback 8.84857 2.13058 4.53516
thorax 4.57163 1.01746 5.3773
lowerneck -12.0205 0.169642 3.1077
upperneck 41.1956 4.93376 -7.60729
head 17.4545 2.10853 -2.99333
rclavicle -1.39149e-014 9.54166e-015
rhumerus -16.8874 44.6792 -94.0594
rradius 63.7307
rwrist -58.2663
rhand -35.8317 -20.6651
rfingers 7.12502
rthumb -8.94742 -50.4554
lclavicle -1.39149e-014 9.54166e-015
lhumerus -18.9388 -48.7074 104.804
lradius 67.2528
lwrist 65.9756
lhand -13.3197 66.2136
lfingers 7.12502
lthumb -167.215 84.1979
rfemur -39.6125 -3.10656 20.8651
rtibia 35.5692
rfoot -9.05191 -0.868487
rtoes 4.24036
lfemur -37.8599 7.84817 -13.7275
ltibia 34.2359
lfoot -11.5503 -7.67386
ltoes -6.48699
247
root -8.67577 17.7651 5.34725 -24.2175 83.8461 -41.7935
lowerback 7.94923 1.40073 -1.3973
upperback 8.88016 2.09546 4.5438
thorax 4.60439 0.990679 5.47554
lowerneck -12.0224 0.223157 3.13445
upperneck 41.181 5.02789 -7.66366
head 17.4595 2.14277 -3.00768
rclavicle -3.29983e-014 -6.2816e-014
rhumerus -16.8461 44.794 -93.999
rradius 63.7746
rwrist -58.3494
rhand -35.8224 -20.6742
rfingers 7.12502
rthumb -8.93845 -50.4648
lclavicle -3.29983e-014 -6.2816e-014
lhumerus -18.8234 -48.6386 104.731
lradius 67.2285
lwrist 65.9865
lhand -12.9285 65.7279
lfingers 7.12502
lthumb -166.838 84.7076
rfemur -39.5699 -3.09673 20.7673
rtibia 35.5435
rfoot -9.03766 -0.880313
rtoes 4.64092
lfemur -37.8322 7.79943 -13.7844
ltibia 34.234
lfoot -11.6733 -7.64758
ltoes -7.20731
248
root -8.67696 17.7606 5.34566 -23.3686 83.885 -40.9489
lowerback 7.9533 1.40571 -1.52076
upperback 8.87338 2.09609 4.5274
thorax 4.59224 0.984431 5.52792
lowerneck -12.0529 0.242127 3.20084
upperneck 41.2364 5.07488 -7.72389
head 17.5092 2.16553 -3.04227
rclavicle 1.07344e-014 1.59028e-014
rhumerus -16.8623 44.8106 -93.9605
rradius 63.8182
rwrist -58.3994
rhand -35.8632 -20.6944
rfingers 7.12502
rthumb -8.97782 -50.4834
lclavicle 1.07344e-014 1.59028e-014
lhumerus -18.7856 -48.6575 104.707
lradius 67.2155
lwrist 66.0358
lhand -13.4684 66.4936
lfingers 7.12502
lthumb -167.358 83.9089
rfemur -39.5933 -3.11179 20.6591
rtibia 35.529
rfoot -8.98784 -0.870856
rtoes 4.60684
lfemur -37.8428 7.78575 -13.8962
ltibia 34.2175
lfoot -11.846 -7.56974
ltoes -8.89906
249
root -8.67828 17.7629 5.34235 -23.5107 83.9293 -41.0941
lowerback 7.98502 1.39233 -1.50602
upperback 8.85215 2.0789 4.53297
thorax 4.55387 0.977396 5.5243
lowerneck -12.019 0.222869 3.17462
upperneck 41.223 5.04915 -7.7164
head 17.4888 2.15299 -3.03762
rclavicle -5.56597e-015 2.06736e-014
rhumerus -16.8912 44.8058 -93.928
rradius 63.8649
rwrist -58.4128
rhand -35.8454 -20.7305
rfingers 7.12502
rthumb -8.96059 -50.5202
lclavicle -5.56597e-015 2.06736e-014
lhumerus -18.7815 -48.6862 104.743
lradius 67.1512
lwrist 66.0562
lhand -13.4205 66.1794
lfingers 7.12502
lthumb -167.312 84.2261
rfemur -39.5824 -3.11164 20.6218
rtibia 35.5075
rfoot -8.96847 -0.891418
rtoes 4.79475
lfemur -37.8573 7.75243 -13.932
ltibia 34.2139
lfoot -11.7087 -7.56873
ltoes -8.28177
250
root -8.67929 17.7672 5.33892 -23.5675 84.029 -41.0869
lowerback 8.07231 1.37212 -1.47013
upperback 8.8521 2.05584 4.50879
thorax 4.50926 0.970067 5.47628
lowerneck -11.9694 0.198769 3.11449
upperneck 41.1752 4.99401 -7.65085
head 17.4375 2.12984 -3.00326
rclavicle 6.75868e-015 -2.46493e-014
rhumerus -16.8933 44.7538 -93.9102
rradius 63.8974
rwrist -58.4702
rhand -35.8813 -20.7115
rfingers 7.12502
rthumb -8.9953 -50.4997
lclavicle 6.75868e-015 -2.46493e-014
lhumerus -18.7333 -48.7613 104.783
lradius 67.0235
lwrist 66.072
lhand -13.3769 66.1758
lfingers 7.12502
lthumb -167.27 84.2322
rfemur -39.4659 -3.08828 20.5088
rtibia 35.4476
rfoot -8.95195 -1.01467
rtoes 4.86328
lfemur -37.821 7.65735 -13.9986
ltibia 34.2582
lfoot -11.6179 -7.58667
ltoes -7.18638
251
root -8.68038 17.7729 5.33567 -23.0186 84.0769 -40.491
lowerback 8.13188 1.37772 -1.50626
upperback 8.85285 2.06272 4.48863
thorax 4.47592 0.97299 5.47306
lowerneck -11.9765 0.176754 3.06524
upperneck 41.1879 4.9657 -7.62047
head 17.4414 2.11504 -2.9853
rclavicle 6.36111e-015 1.11319e-014
rhumerus -16.8981 44.747 -93.8569
rradius 63.9342
rwrist -58.5413
rhand -35.9296 -20.633
rfingers 7.12502
rthumb -9.04189 -50.4192
lclavicle 6.36111e-015 1.11319e-014
lhumerus -18.7015 -48.8474 104.824
lradius 66.9779
lwrist 66.1052
lhand -13.4309 66.117
lfingers 7.12502
lthumb -167.322 84.2878
rfemur -39.3767 -3.06132 20.3974
rtibia 35.3721
rfoot -8.89318 -1.09472
rtoes 4.15452
lfemur -37.6661 7.47778 -13.9673
ltibia 34.2998
lfoot -11.7522 -7.64951
ltoes -6.15186
252
root -8.68085 17.7779 5.33227 -22.8537 84.0549 -40.3335
lowerback 8.12379 1.35506 -1.53366
upperback 8.84542 2.03069 4.49342
thorax 4.47515 0.955089 5.49535
lowerneck -11.9816 0.193745 3.07209
upperneck 41.215 5.00714 -7.6498
head 17.4643 2.12929 -2.9943
rclavicle -1.15295e-014 -2.8625e-014
rhumerus -16.8938 44.8931 -93.8395
rradius 63.9654
rwrist -58.558
rhand -35.9151 -20.6387
rfingers 7.12502
rthumb -9.02784 -50.4255
lclavicle -1.15295e-014 -2.8625e-014
lhumerus -18.7644 -48.7855 104.823
lradius 67.0629
lwrist 66.1049
lhand -13.4842 66.0792
lfingers 7.12502
lthumb -167.374 84.3224
rfemur -39.3548 -3.03544 20.383
rtibia 35.3238
rfoot -8.88044 -1.07561
rtoes 3.96923
lfemur -37.5424 7.31335 -13.854
ltibia 34.2955
lfoot -11.8392 -7.64061
ltoes -5.54136
253
root -8.68013 17.7742 5.32946 -22.8646 84.0061 -40.3483
lowerback 8.10332 1.33281 -1.52736
upperback 8.84873 2.001 4.49979
thorax 4.49328 0.93986 5.50086
lowerneck -11.9702 0.220107 3.06334
upperneck 41.2177 5.05064 -7.65171
head 17.4672 2.14486 -2.98628
rclavicle -1.59028e-015 1.59028e-015
rhumerus -16.9157 45.0158 -93.859
rradius 63.9891
rwrist -58.4943
rhand -35.8978 -20.6675
rfingers 7.12502
rthumb -9.01119 -50.455
lclavicle -1.59028e-015 1.59028e-015
lhumerus -18.808 -48.6911 104.811
lradius 67.1268
lwrist 66.1298
lhand -13.4782 66.1076
lfingers 7.12502
lthumb -167.368 84.2944
rfemur -39.3437 -2.96759 20.3797
rtibia 35.3043
rfoot -8.90112 -1.09131
rtoes 4.40238
lfemur -37.6409 7.43667 -13.941
ltibia 34.2577
lfoot -11.7519 -7.48616
ltoes -6.8808
254
root -8.68049 17.7706 5.32638 -22.4613 83.9945 -39.9851
lowerback 8.03599 1.32676 -1.59622
upperback 8.85095 1.98845 4.52311
thorax 4.53241 0.927847 5.56788
lowerneck -11.9765 0.227837 2.99794
upperneck 41.21 5.07466 -7.63981
head 17.4649 2.14522 -2.96412
rclavicle -5.56597e-015 -2.3059e-014
rhumerus -16.9379 45.0731 -93.8143
rradius 64.0006
rwrist -58.4454
rhand -35.8506 -20.6256
rfingers 7.12502
rthumb -8.96564 -50.4151
lclavicle -5.56597e-015 -2.3059e-014
lhumerus -18.7766 -48.626 104.826
lradius 67.1492
lwrist 66.1889
lhand -13.5659 66.0435
lfingers 7.12502
lthumb -167.452 84.3533
rfemur -39.4073 -2.95718 20.3355
rtibia 35.3051
rfoot -8.87628 -1.07569
rtoes 4.38803
lfemur -37.7835 7.60019 -14.1083
ltibia 34.2049
lfoot -11.6521 -7.41927
ltoes -7.53933
255
root -8.68198 17.7719 5.32381 -22.4169 84.0077 -39.9742
lowerback 7.98097 1.3187 -1.65989
upperback 8.85077 1.97392 4.55876
thorax 4.56228 0.915164 5.64472
lowerneck -11.9927 0.229513 2.97123
upperneck 41.224 5.08961 -7.64499
head 17.4786 2.14632 -2.95957
rclavicle -5.96354e-015 1.59028e-015
rhumerus -16.8883 45.0756 -93.7597
rradius 63.9498
rwrist -58.4151
rhand -35.7591 -20.5846
rfingers 7.12502
rthumb -8.87738 -50.3778
lclavicle -5.96354e-015 1.59028e-015
lhumerus -18.762 -48.5664 104.852
lradius 67.1778
lwrist 66.2179
lhand -13.6747 66.1526
lfingers 7.12502
lthumb -167.557 84.2378
rfemur -39.4599 -2.99579 20.332
rtibia 35.3052
rfoot -8.83928 -1.03105
rtoes 4.18438
lfemur -37.8059 7.61536 -14.1402
ltibia 34.1518
lfoot -11.5993 -7.44096
ltoes -7.16437
256
root -8.68346 17.7724 5.32236 -22.5557 84.0155 -40.1089
lowerback 7.99585 1.32677 -1.64938
upperback 8.83991 1.98497 4.55362
thorax 4.54141 0.921895 5.63176
lowerneck -11.9974 0.209726 2.98435
upperneck 41.2721 5.05195 -7.6124
head 17.5026 2.13835 -2.95538
rclavicle 3.97569e-016 -1.43125e-014
rhumerus -16.8643 44.9485 -93.8011
rradius 63.885
rwrist -58.3473
rhand -35.6748 -20.5373
rfingers 7.12502
rthumb -8.79598 -50.334
lclavicle 3.97569e-016 -1.43125e-014
lhumerus -18.8137 -48.5935 104.883
lradius 67.201
lwrist 66.2594
lhand -13.7473 66.3389
lfingers 7.12502
lthumb -167.627 84.0473
rfemur -39.443 -3.01025 20.3398
rtibia 35.2752
rfoot -8.81737 -1.01651
rtoes 4.34017
lfemur -37.8 7.63288 -14.1467
ltibia 34.1327
lfoot -11.5745 -7.45822
ltoes -7.51433
257
root -8.68433 17.7754 5.32038 -22.5053 84.0231 -40.0694
lowerback 7.9837 1.31909 -1.65996
upperback 8.82954 1.97363 4.54521
thorax 4.53823 0.915697 5.62935
lowerneck -11.9827 0.213856 2.98771
upperneck 41.2984 5.0493 -7.57964
head 17.5122 2.14264 -2.9423
rclavicle 2.46493e-014 4.37326e-014
rhumerus -16.8765 44.8824 -93.8525
rradius 63.8631
rwrist -58.2989
rhand -35.7132 -20.5066
rfingers 7.12502
rthumb -8.83309 -50.3017
lclavicle 2.46493e-014 4.37326e-014
lhumerus -18.8354 -48.5858 104.891
lradius 67.2071
lwrist 66.3166
lhand -13.8338 66.2686
lfingers 7.12502
lthumb -167.711 84.1125
rfemur -39.4245 -2.99978 20.3213
rtibia 35.214
rfoot -8.8055 -1.02717
rtoes 4.62327
lfemur -37.8092 7.66967 -14.1944
ltibia 34.1434
lfoot -11.6682 -7.42048
ltoes -8.54023
258
root -8.68444 17.7795 5.31821 -22.5767 83.9705 -40.168
lowerback 7.92817 1.30721 -1.69869
upperback 8.82934 1.95494 4.59028
thorax 4.56921 0.901999 5.70224
lowerneck -11.9457 0.235731 2.94093
upperneck 41.2656 5.09293 -7.58521
head 17.487 2.15222 -2.9272
rclavicle 1.47101e-014 8.74653e-015
rhumerus -16.8845 44.9735 -93.8232
rradius 63.8777
rwrist -58.3186
rhand -35.8371 -20.5086
rfingers 7.12502
rthumb -8.95262 -50.2986
lclavicle 1.47101e-014 8.74653e-015
lhumerus -18.8319 -48.519 104.93
lradius 67.2605
lwrist 66.5563
lhand -14.1672 66.1757
lfingers 7.12502
lthumb -168.032 84.1865
rfemur -39.4056 -2.89178 20.3247
rtibia 35.1293
rfoot -8.76155 -1.08813
rtoes 4.80867
lfemur -37.826 7.66016 -14.147
ltibia 34.1746
lfoot -11.6968 -7.38922
ltoes -8.07894
259
root -8.68445 17.7813 5.31658 -22.7286 83.8901 -40.3557
lowerback 7.86647 1.32623 -1.65718
upperback 8.82932 1.98071 4.59809
thorax 4.60124 0.915927 5.68766
lowerneck -11.921 0.227223 2.90786
upperneck 41.2281 5.06545 -7.54813
head 17.4532 2.14003 -2.90708
rclavicle 3.18055e-014 2.78299e-014
rhumerus -16.8742 44.925 -93.8214
rradius 63.8754
rwrist -58.3265
rhand -35.7966 -20.5171
rfingers 7.12502
rthumb -8.91352 -50.3088
lclavicle 3.18055e-014 2.78299e-014
lhumerus -18.8389 -48.5654 104.881
lradius 67.3412
lwrist 66.5721
lhand -14.018 66.1533
lfingers 7.12502
lthumb -167.888 84.2173
rfemur -39.3807 -2.77056 20.3494
rtibia 35.022
rfoot -8.70144 -1.13812
rtoes 5.19531
lfemur -37.8672 7.64906 -14.0428
ltibia 34.2315
lfoot -11.6143 -7.45187
ltoes -6.27245
